<svg shape-rendering="geometricPrecision" text-rendering="optimizeLegibility" xmlns="http://www.w3.org/2000/svg" width="900" height="260" viewBox="0 0 900 260">

  <rect x="8" y="8" width="884" height="244" rx="16" fill="#f7f8fb" stroke="#d8dee6"/>
  <rect x="8" y="8" width="884" height="244" rx="16" fill="url(#grid)" opacity="0.35"/>

  
  <style>
  .diagram-title { font-size: 13px; font-weight: 600; fill: #0b1324; }
  line, path, polyline, polygon, rect { stroke-linecap: round; stroke-linejoin: round; }
    text { font-family: "Pretendard", "Apple SD Gothic Neo", "Noto Sans KR", "Segoe UI", sans-serif; fill: #0b1324; }
    .title { font-size: 16px; font-weight: 600; }
    .small { font-size: 10.5px; fill: #5b6472; }
    .box { stroke: #2563eb; stroke-width: 1.5; fill: #f4f6fb; }
    .grid { stroke: #9aa3af; stroke-width: 1; }
  </style>
  <defs>
    <pattern id="grid" width="24" height="24" patternUnits="userSpaceOnUse">
      <path d="M24 0 H0 V24" fill="none" stroke="#d8dee6" stroke-width="1" opacity="0.5"/>
    </pattern>
  </defs>
  <text x="60" y="30" class="title">UDP Header (bit layout with ranges)</text>
  <text x="60" y="50" class="small" text-anchor="middle">0</text>
  <text x="450" y="50" class="small" text-anchor="middle">15</text>
  <text x="840" y="50" class="small" text-anchor="middle">31</text>

  <!-- Row 1 -->
  <rect x="60" y="60" width="780" height="30" class="box"/>
  <line x1="450" y1="60" x2="450" y2="90" class="grid"/>
  <text x="255" y="78" class="small" text-anchor="middle">0–15</text>
  <text x="645" y="78" class="small" text-anchor="middle">16–31</text>
  <text x="255" y="92" class="small" text-anchor="middle">Source Port (16)</text>
  <text x="645" y="92" class="small" text-anchor="middle">Destination Port (16)</text>

  <!-- Row 2 -->
  <rect x="60" y="100" width="780" height="30" class="box"/>
  <line x1="450" y1="100" x2="450" y2="130" class="grid"/>
  <text x="255" y="118" class="small" text-anchor="middle">0–15</text>
  <text x="645" y="118" class="small" text-anchor="middle">16–31</text>
  <text x="255" y="132" class="small" text-anchor="middle">Length (16)</text>
  <text x="645" y="132" class="small" text-anchor="middle">Checksum (16)</text>

  <text x="60" y="170" class="small">각 필드 위 숫자는 비트 범위</text>
</svg>
