<svg shape-rendering="geometricPrecision" text-rendering="optimizeLegibility" xmlns="http://www.w3.org/2000/svg" width="900" height="280" viewBox="0 0 900 280">

  <rect x="8" y="8" width="884" height="264" rx="16" fill="#f7f8fb" stroke="#d8dee6"/>
  <rect x="8" y="8" width="884" height="264" rx="16" fill="url(#grid)" opacity="0.35"/>

<style>
  .diagram-title { font-size: 13px; font-weight: 600; fill: #0b1324; }
  line, path, polyline, polygon, rect { stroke-linecap: round; stroke-linejoin: round; }
  text { font-family: "Pretendard", "Apple SD Gothic Neo", "Noto Sans KR", "Segoe UI", sans-serif; fill: #0b1324; }
  .title { font-size: 16px; font-weight: 600; }
  .label { font-size: 12px; }
  .box { stroke: #2563eb; stroke-width: 1.5; fill: #f4f6fb; rx: 10; ry: 10; }
  .line { stroke: #2f3745; stroke-width: 2; }
  .muted { fill: #5b6472; }
</style>
  <defs>
    <pattern id="grid" width="24" height="24" patternUnits="userSpaceOnUse">
      <path d="M24 0 H0 V24" fill="none" stroke="#d8dee6" stroke-width="1" opacity="0.5"/>
    </pattern>
  </defs>
<rect x="60" y="110" width="160" height="60" rx="8" fill="#f4f6fb" stroke="#2563eb"/>
  <text x="140" y="145" font-family="Pretendard" font-size="12" text-anchor="middle">Client</text>

  <rect x="320" y="110" width="180" height="60" rx="8" fill="#fff3e6" stroke="#f59e0b"/>
  <text x="410" y="145" font-family="Pretendard" font-size="12" text-anchor="middle">Load Balancer</text>

  <rect x="640" y="60" width="180" height="60" rx="8" fill="#e6f7f3" stroke="#0ea5a5"/>
  <text x="730" y="95" font-family="Pretendard" font-size="12" text-anchor="middle">Backend A</text>

  <rect x="640" y="160" width="180" height="60" rx="8" fill="#e6f7f3" stroke="#0ea5a5"/>
  <text x="730" y="195" font-family="Pretendard" font-size="12" text-anchor="middle">Backend B</text>

  <line x1="220" y1="140" x2="320" y2="140" stroke="#2f3745" stroke-width="2" marker-end="url(#arrow)"/>
  <line x1="500" y1="140" x2="640" y2="90" stroke="#2f3745" stroke-width="2" marker-end="url(#arrow)"/>
  <line x1="500" y1="140" x2="640" y2="190" stroke="#2f3745" stroke-width="2" marker-end="url(#arrow)"/>

  <defs>
    <marker id="arrow" markerWidth="10" markerHeight="7" refX="10" refY="3.5" orient="auto">
      <polygon points="0 0, 10 3.5, 0 7" fill="#0b1324"/>
    </marker>
  </defs>
</svg>
