<svg shape-rendering="geometricPrecision" text-rendering="optimizeLegibility" xmlns="http://www.w3.org/2000/svg" width="900" height="280" viewBox="0 0 900 280">

  <rect x="8" y="8" width="884" height="264" rx="16" fill="#f7f8fb" stroke="#d8dee6"/>
  <rect x="8" y="8" width="884" height="264" rx="16" fill="url(#grid)" opacity="0.35"/>

<style>
  .diagram-title { font-size: 13px; font-weight: 600; fill: #0b1324; }
  line, path, polyline, polygon, rect { stroke-linecap: round; stroke-linejoin: round; }
  text { font-family: "Pretendard", "Apple SD Gothic Neo", "Noto Sans KR", "Segoe UI", sans-serif; fill: #0b1324; }
  .title { font-size: 16px; font-weight: 600; }
  .label { font-size: 12px; }
  .box { stroke: #2563eb; stroke-width: 1.5; fill: #f4f6fb; rx: 10; ry: 10; }
  .line { stroke: #2f3745; stroke-width: 2; }
  .muted { fill: #5b6472; }
</style>
  <defs>
    <pattern id="grid" width="24" height="24" patternUnits="userSpaceOnUse">
      <path d="M24 0 H0 V24" fill="none" stroke="#d8dee6" stroke-width="1" opacity="0.5"/>
    </pattern>
  </defs>
<rect x="40" y="110" width="140" height="60" rx="8" fill="#f4f6fb" stroke="#2563eb"/>
  <text x="110" y="145" font-family="Pretendard" font-size="12" text-anchor="middle">Client</text>

  <rect x="240" y="110" width="140" height="60" rx="8" fill="#e6f7f3" stroke="#0ea5a5"/>
  <text x="310" y="145" font-family="Pretendard" font-size="12" text-anchor="middle">Local DNS</text>

  <rect x="440" y="40" width="140" height="60" rx="8" fill="#fff3e6" stroke="#f59e0b"/>
  <text x="510" y="75" font-family="Pretendard" font-size="12" text-anchor="middle">Root</text>

  <rect x="440" y="110" width="140" height="60" rx="8" fill="#fbf4f7" stroke="#c026d3"/>
  <text x="510" y="145" font-family="Pretendard" font-size="12" text-anchor="middle">TLD</text>

  <rect x="440" y="180" width="140" height="60" rx="8" fill="#f2edff" stroke="#6d28d9"/>
  <text x="510" y="215" font-family="Pretendard" font-size="12" text-anchor="middle">Authoritative</text>

  <line x1="180" y1="140" x2="240" y2="140" stroke="#2f3745" stroke-width="2" marker-end="url(#arrow)"/>
  <line x1="380" y1="140" x2="440" y2="70" stroke="#2f3745" stroke-width="2" marker-end="url(#arrow)"/>
  <line x1="380" y1="140" x2="440" y2="140" stroke="#2f3745" stroke-width="2" marker-end="url(#arrow)"/>
  <line x1="380" y1="140" x2="440" y2="210" stroke="#2f3745" stroke-width="2" marker-end="url(#arrow)"/>

  <defs>
    <marker id="arrow" markerWidth="10" markerHeight="7" refX="10" refY="3.5" orient="auto">
      <polygon points="0 0, 10 3.5, 0 7" fill="#0b1324"/>
    </marker>
  </defs>
</svg>
