<svg shape-rendering="geometricPrecision" text-rendering="optimizeLegibility" xmlns="http://www.w3.org/2000/svg" width="900" height="320" viewBox="0 0 900 320">

  <rect x="8" y="8" width="884" height="304" rx="16" fill="#f7f8fb" stroke="#d8dee6"/>
  <rect x="8" y="8" width="884" height="304" rx="16" fill="url(#grid)" opacity="0.35"/>

<style>
  .diagram-title { font-size: 13px; font-weight: 600; fill: #0b1324; }
  line, path, polyline, polygon, rect { stroke-linecap: round; stroke-linejoin: round; }
  text { font-family: "Pretendard", "Apple SD Gothic Neo", "Noto Sans KR", "Segoe UI", sans-serif; fill: #0b1324; }
  .title { font-size: 16px; font-weight: 600; }
  .label { font-size: 12px; }
  .box { stroke: #2563eb; stroke-width: 1.5; fill: #f4f6fb; rx: 10; ry: 10; }
  .line { stroke: #2f3745; stroke-width: 2; }
  .muted { fill: #5b6472; }
</style>
  <defs>
    <pattern id="grid" width="24" height="24" patternUnits="userSpaceOnUse">
      <path d="M24 0 H0 V24" fill="none" stroke="#d8dee6" stroke-width="1" opacity="0.5"/>
    </pattern>
  </defs>
<text x="200" y="30" font-family="Pretendard" font-size="16" fill="#0b1324">OSI 7 계층</text>
  <text x="620" y="30" font-family="Pretendard" font-size="16" fill="#0b1324">TCP/IP 4 계층</text>

  <g font-family="Pretendard" font-size="13" fill="#0b1324">
    <rect x="80" y="50" width="240" height="30" fill="#f4f6fb" stroke="#2563eb"/>
    <text x="200" y="70" text-anchor="middle">7 응용</text>
    <rect x="80" y="80" width="240" height="30" fill="#e6f7f3" stroke="#0ea5a5"/>
    <text x="200" y="100" text-anchor="middle">6 표현</text>
    <rect x="80" y="110" width="240" height="30" fill="#fff3e6" stroke="#f59e0b"/>
    <text x="200" y="130" text-anchor="middle">5 세션</text>
    <rect x="80" y="140" width="240" height="30" fill="#fbf4f7" stroke="#c026d3"/>
    <text x="200" y="160" text-anchor="middle">4 전송</text>
    <rect x="80" y="170" width="240" height="30" fill="#f2edff" stroke="#6d28d9"/>
    <text x="200" y="190" text-anchor="middle">3 네트워크</text>
    <rect x="80" y="200" width="240" height="30" fill="#f2edff" stroke="#6d28d9"/>
    <text x="200" y="220" text-anchor="middle">2 데이터링크</text>
    <rect x="80" y="230" width="240" height="30" fill="#f6f9fb" stroke="#355764"/>
    <text x="200" y="250" text-anchor="middle">1 물리</text>
  </g>

  <g font-family="Pretendard" font-size="13" fill="#0b1324">
    <rect x="560" y="70" width="240" height="50" fill="#f4f6fb" stroke="#2563eb"/>
    <text x="680" y="100" text-anchor="middle">응용</text>
    <rect x="560" y="120" width="240" height="50" fill="#fbf4f7" stroke="#c026d3"/>
    <text x="680" y="150" text-anchor="middle">전송</text>
    <rect x="560" y="170" width="240" height="50" fill="#f2edff" stroke="#6d28d9"/>
    <text x="680" y="200" text-anchor="middle">인터넷</text>
    <rect x="560" y="220" width="240" height="50" fill="#f6f9fb" stroke="#355764"/>
    <text x="680" y="250" text-anchor="middle">네트워크 인터페이스</text>
  </g>
</svg>
