<svg shape-rendering="geometricPrecision" text-rendering="optimizeLegibility" xmlns="http://www.w3.org/2000/svg" width="900" height="320" viewBox="0 0 900 320">

  <rect x="8" y="8" width="884" height="304" rx="16" fill="#f7f8fb" stroke="#d8dee6"/>
  <rect x="8" y="8" width="884" height="304" rx="16" fill="url(#grid)" opacity="0.35"/>

<style>
  .diagram-title { font-size: 13px; font-weight: 600; fill: #0b1324; }
  line, path, polyline, polygon, rect { stroke-linecap: round; stroke-linejoin: round; }
  text { font-family: "Pretendard", "Apple SD Gothic Neo", "Noto Sans KR", "Segoe UI", sans-serif; fill: #0b1324; }
  .title { font-size: 16px; font-weight: 600; }
  .label { font-size: 12px; }
  .box { stroke: #2563eb; stroke-width: 1.5; fill: #f4f6fb; rx: 10; ry: 10; }
  .line { stroke: #2f3745; stroke-width: 2; }
  .muted { fill: #5b6472; }
</style>
  <defs>
    <pattern id="grid" width="24" height="24" patternUnits="userSpaceOnUse">
      <path d="M24 0 H0 V24" fill="none" stroke="#d8dee6" stroke-width="1" opacity="0.5"/>
    </pattern>
  </defs>
<rect x="60" y="40" width="200" height="60" rx="8" fill="#f4f6fb" stroke="#2563eb"/>
  <text x="160" y="75" font-family="Pretendard" font-size="12" text-anchor="middle">문제 발생</text>

  <rect x="60" y="140" width="200" height="60" rx="8" fill="#fff3e6" stroke="#f59e0b"/>
  <text x="160" y="175" font-family="Pretendard" font-size="12" text-anchor="middle">IP 확인</text>

  <rect x="60" y="240" width="200" height="60" rx="8" fill="#e6f7f3" stroke="#0ea5a5"/>
  <text x="160" y="275" font-family="Pretendard" font-size="12" text-anchor="middle">DNS 확인</text>

  <rect x="360" y="140" width="200" height="60" rx="8" fill="#fbf4f7" stroke="#c026d3"/>
  <text x="460" y="175" font-family="Pretendard" font-size="12" text-anchor="middle">포트 확인</text>

  <rect x="660" y="140" width="200" height="60" rx="8" fill="#f2edff" stroke="#6d28d9"/>
  <text x="760" y="175" font-family="Pretendard" font-size="12" text-anchor="middle">경로 확인</text>

  <line x1="160" y1="100" x2="160" y2="140" stroke="#2f3745" stroke-width="2" marker-end="url(#arrow)"/>
  <line x1="260" y1="170" x2="360" y2="170" stroke="#2f3745" stroke-width="2" marker-end="url(#arrow)"/>
  <line x1="560" y1="170" x2="660" y2="170" stroke="#2f3745" stroke-width="2" marker-end="url(#arrow)"/>
  <line x1="160" y1="200" x2="160" y2="240" stroke="#2f3745" stroke-width="2" marker-end="url(#arrow)"/>

  <defs>
    <marker id="arrow" markerWidth="10" markerHeight="7" refX="10" refY="3.5" orient="auto">
      <polygon points="0 0, 10 3.5, 0 7" fill="#0b1324"/>
    </marker>
  </defs>
</svg>
